<?xml version="1.0" encoding="UTF-8"?> <svg xmlns="http://www.w3.org/2000/svg" width="244" height="54" viewBox="0 0 244 54" fill="none"><path d="M132.933 48.2962C132.767 48.286 132.605 48.2809 132.438 48.2706C131.694 47.9949 131.355 47.4026 131.199 46.6009C130.876 46.9123 130.636 47.1626 130.381 47.3923C129.714 47.9949 128.933 48.2962 128.016 48.194C127.527 48.1379 127.193 47.8877 127.042 47.4179C126.995 47.2749 126.943 47.1319 126.891 46.9838C126.881 46.8102 126.875 46.6417 126.865 46.4681C126.912 46.3558 126.974 46.2485 127.011 46.1362C127.162 45.6613 127.287 45.1762 127.454 44.7115C127.73 43.9455 128.042 43.1949 128.329 42.434C128.407 42.2247 128.433 42.0051 128.178 41.7804C128.047 41.7804 127.839 41.7243 127.683 41.7906C127 42.0868 126.407 42.4953 126.12 43.2255C125.782 44.1038 125.443 44.9821 125.068 45.8451C124.761 46.5549 124.542 47.3158 124.099 47.9489C123.511 48.0409 122.948 48.3013 122.422 47.7906C122.479 47.6068 122.526 47.4281 122.599 47.2596C123.229 45.7583 123.87 44.2621 124.495 42.7609C124.589 42.5362 124.61 42.286 124.657 42.097C124.479 41.7651 124.245 41.7038 123.974 41.8111C123.172 42.1277 122.563 42.6332 122.25 43.4604C121.771 44.7166 121.25 45.9626 120.771 47.2187C120.615 47.6221 120.396 47.9336 119.958 48.1123C119.604 48.0766 119.219 48.194 118.88 48C118.807 47.8417 118.75 47.714 118.656 47.5098C118.13 48.0868 117.442 48.1379 116.802 48.3064C116.713 48.3064 116.625 48.3013 116.536 48.2962C115.802 48.1736 115.697 47.4485 115.265 46.9583C114.614 47.6119 113.874 48.0613 113.02 48.3217C112.77 48.3166 112.515 48.3064 112.265 48.3013C111.431 47.9081 111.14 47.2289 111.296 46.3762C111.39 45.8604 111.536 45.3447 111.718 44.8494C111.963 44.1753 112.28 43.5268 112.541 42.8579C112.676 42.5158 112.807 42.1481 112.458 41.7651C111.504 41.9643 110.791 42.4289 110.426 43.3583C109.91 44.6655 109.379 45.9728 108.848 47.2749C108.754 47.5047 108.624 47.714 108.541 47.8723C107.952 48.2758 107.442 48.0255 106.947 47.9132C106.895 47.8009 106.858 47.714 106.816 47.6323C106.806 47.617 106.77 47.6119 106.712 47.5915C105.905 48.0715 105.072 48.5515 104.035 48.0306C103.821 47.8009 103.587 47.5506 103.316 47.2596C102.748 47.7141 102.181 48.1532 101.451 48.2962C101.285 48.2962 101.123 48.286 100.957 48.2809C100.847 48.2196 100.743 48.1532 100.628 48.1021C100.04 47.8366 99.7846 47.3617 99.7742 46.7489C99.769 46.3762 99.7377 45.9881 99.8211 45.6255C100.165 44.16 100.602 42.7353 101.535 41.4996C101.931 40.9736 102.446 40.6264 103.019 40.3609C103.691 40.0494 104.441 40.223 104.941 40.754C105.108 40.9328 105.264 41.1217 105.467 41.3566C105.988 41.1064 106.467 40.8715 106.947 40.6417H107.02C107.103 40.6877 107.191 40.7387 107.275 40.7847L107.285 40.7949C107.238 41.0043 107.223 41.2238 107.139 41.423C106.624 42.6945 106.087 43.9609 105.577 45.2323C105.426 45.6102 105.29 45.9932 105.197 46.3864C105.139 46.6264 105.16 46.897 105.493 47.0247C106.009 47.0196 106.327 46.6315 106.639 46.2996C107.494 45.406 108.197 44.4102 108.634 43.246C108.853 42.6587 109.087 42.0817 109.332 41.5047C109.478 41.1677 109.551 40.7847 109.947 40.5447C110.134 40.6213 110.343 40.6928 110.541 40.7796C110.77 40.8766 110.994 40.9889 111.187 41.0758C111.833 40.7847 112.432 40.5089 113.031 40.2383C113.343 40.2383 113.661 40.2434 113.973 40.2485C114.708 40.7387 114.906 41.3872 114.588 42.1992C114.473 42.4902 114.395 42.7915 114.281 43.0826C113.963 43.8638 113.624 44.64 113.317 45.4264C113.124 45.9115 112.9 46.4068 113.119 46.9736C113.682 47.1217 114.057 46.7694 114.354 46.4375C115.151 45.5489 115.911 44.6349 116.338 43.4911C116.656 42.6434 117.052 41.8264 117.422 40.9992C117.51 40.8051 117.646 40.6366 117.765 40.4375C118.307 40.4834 118.849 40.2485 119.359 40.6826C118.958 41.6783 118.567 42.6587 118.156 43.634C117.734 44.6349 117.317 45.6358 117.047 46.6315C117.244 46.9583 117.474 47.0809 117.734 46.9481C117.974 46.8204 118.172 46.6111 118.385 46.4375H118.39C118.468 46.3864 118.562 46.3506 118.62 46.2843C119.328 45.4468 120.005 44.594 120.375 43.5472C120.552 43.0519 120.771 42.5668 120.995 42.0919C121.229 41.5915 121.49 41.1013 121.714 40.6519C122.359 40.4885 122.677 41.1268 123.365 41.0196C123.552 40.8919 123.86 40.6826 124.167 40.4732C124.224 40.4477 124.281 40.4272 124.344 40.4017L124.755 40.2536C125.125 40.2536 125.5 40.2536 125.87 40.2536C126.177 40.5498 126.485 40.846 126.823 41.1728C127.662 40.5549 128.579 40.0953 129.688 40.274V40.2638C130.022 40.5906 130.412 40.897 130.345 41.4332C130.298 41.8315 130.246 42.2349 130.115 42.6077C129.865 43.3072 129.537 43.9864 129.266 44.6809C129.053 45.2323 128.87 45.794 128.678 46.3506C128.589 46.606 128.61 46.8409 128.87 46.9992C129.291 46.9106 129.699 46.6638 130.094 46.2587C130.173 46.2077 130.266 46.1719 130.324 46.1004C131.022 45.217 131.678 44.3234 132.069 43.2409C132.491 42.0919 133.126 41.0502 134.314 40.4579C135.147 40.0392 135.902 40.1668 136.538 40.8664C136.663 40.9992 136.788 41.1319 136.902 41.2545C137.335 41.234 137.673 41.086 137.981 40.8511C138.038 40.8255 138.1 40.8 138.158 40.7745C138.366 40.7898 138.611 40.6468 138.798 40.9736C138.725 41.1881 138.647 41.4536 138.543 41.7089C138.199 42.5464 137.835 43.3787 137.496 44.2213C137.231 44.8851 136.986 45.5643 136.741 46.2383C136.637 46.5192 136.637 46.7898 136.902 47.0145C137.387 47.1064 137.673 46.7694 137.955 46.4987C138.944 45.5489 139.684 44.4204 140.189 43.154C140.512 42.3421 140.856 41.5353 141.179 40.7183C141.533 39.8196 141.872 38.9106 142.215 38.0068L142.205 38.0119C142.481 37.6851 142.814 37.5064 143.262 37.5575C143.544 37.5881 143.825 37.5881 144.106 37.6034L144.111 37.6085C144.2 38.0375 144.007 38.4102 143.856 38.783C143.153 40.5243 142.434 42.2553 141.72 43.9966C141.47 44.6043 141.231 45.217 140.981 45.8247C140.835 46.177 140.752 46.5345 140.887 46.8919C141.408 47.0145 141.476 47.0196 141.773 46.7643C142.424 46.2026 142.981 45.5592 143.424 44.8289C143.601 44.5379 143.726 44.206 144.049 44.0375C144.429 44.0017 144.575 44.206 144.658 44.6043C144.419 44.9719 144.153 45.3906 143.882 45.8094C143.132 46.9685 142.2 47.9234 140.799 48.3166L140.746 48.2911L140.694 48.3166C140.543 48.2758 140.397 48.2094 140.246 48.1992C139.658 48.1736 139.309 47.8723 139.132 47.3413C139.095 47.234 139.038 47.1268 138.96 46.9481C138.673 47.183 138.449 47.3975 138.199 47.5711C137.397 48.1226 136.559 48.5311 135.548 48.0562C135.308 47.8111 135.069 47.566 134.793 47.2851C134.225 47.7753 133.631 48.1736 132.902 48.3064L132.933 48.2962ZM133.543 46.754C134.319 46.6621 134.777 46.1311 135.079 45.5745C135.538 44.7268 135.866 43.8077 136.199 42.9038C136.402 42.3523 136.215 42.0766 135.564 41.7702C135.173 41.8315 134.871 42.0409 134.621 42.3421C133.798 43.3277 133.345 44.4817 133.069 45.7072C132.98 46.1055 132.975 46.5294 133.543 46.7592V46.754ZM102.087 46.754C102.801 46.6315 103.285 46.1106 103.597 45.5081C104.025 44.6809 104.332 43.7923 104.665 42.9192C104.879 42.3575 104.738 42.1226 104.071 41.7702C103.597 41.8162 103.274 42.1072 102.998 42.4596C102.285 43.3634 101.899 44.4102 101.582 45.4877C101.524 45.6919 101.55 45.9217 101.545 46.1362C101.545 46.463 101.727 46.6519 102.087 46.7489V46.754Z" fill="#2F3293"></path><path d="M203.799 43.6084C204.054 43.6135 204.309 43.6288 204.564 43.6288C214.034 43.6288 223.504 43.6288 232.973 43.6288C233.228 43.6288 233.484 43.6135 233.739 43.6084C234.077 43.6544 234.301 43.8586 234.473 44.1292V45.0841C234.218 45.2271 233.978 45.3599 233.734 45.4927C232.551 45.4927 231.369 45.4824 230.186 45.4824C221.68 45.4824 213.175 45.4824 204.669 45.4824C204.382 45.4824 204.096 45.4875 203.804 45.4927C203.559 45.3599 203.314 45.2271 203.059 45.0893V44.0016C203.314 43.8688 203.559 43.7412 203.804 43.6135L203.799 43.6084Z" fill="#A8A9AC"></path><path d="M62.7553 43.6086C63.0105 43.6137 63.2657 43.629 63.521 43.629C72.9905 43.629 82.4601 43.629 91.9296 43.629C92.1849 43.629 92.4401 43.6137 92.6953 43.6086C92.961 43.7567 93.2787 43.8384 93.4246 44.1346V45.0793C93.1693 45.2222 92.9349 45.355 92.6953 45.4878C92.1224 45.4878 91.5442 45.4776 90.9712 45.4776C81.8871 45.4776 72.8082 45.4776 63.7241 45.4776C63.4064 45.4776 63.0834 45.4878 62.7657 45.4878C62.5209 45.355 62.2761 45.2222 62.0156 45.0844V44.1244C62.1927 43.8486 62.4167 43.6393 62.7605 43.6035L62.7553 43.6086Z" fill="#A7A9AC"></path><path d="M184.604 37.6035V37.6083H184.609L184.604 37.6035Z" fill="#2F3293"></path><path d="M196.913 44.0274C196.6 44.2061 196.475 44.5329 196.298 44.824C195.907 45.4776 195.413 46.0495 194.86 46.5703C194.537 46.8767 194.527 46.8716 193.949 46.9891C193.72 46.8767 193.616 46.6929 193.678 46.4529C193.746 46.1823 193.819 45.9065 193.928 45.6461C194.73 43.675 195.538 41.7091 196.345 39.7431C196.616 39.0793 196.939 38.4359 197.032 37.6954C196.517 37.4452 196.022 37.5525 195.444 37.6137C195.319 37.8231 195.142 38.0478 195.043 38.298C194.366 39.9474 193.72 41.612 193.027 43.2614C192.475 44.5789 191.709 45.7533 190.594 46.698C190.35 46.9074 190.11 47.1167 189.719 46.9635C189.485 46.6265 189.579 46.264 189.709 45.9116C189.928 45.3244 190.157 44.7423 190.397 44.1652C190.766 43.2716 191.147 42.378 191.516 41.4844C191.589 41.3159 191.636 41.1372 191.699 40.9584C191.621 40.8716 191.558 40.8052 191.454 40.6878C190.943 40.8869 190.423 41.0912 189.85 41.3159C189.704 41.1627 189.547 41.0146 189.407 40.8563C188.808 40.1925 188.063 40.0393 187.256 40.4376C186.709 40.7082 186.235 41.0503 185.88 41.5661C185.479 42.138 185.12 42.7201 184.891 43.3789C184.469 44.5942 183.703 45.5848 182.792 46.4784C182.438 46.8257 182.047 47.1831 181.401 46.9635C181.38 46.7644 181.328 46.555 181.349 46.3508C181.37 46.1363 181.437 45.9218 181.521 45.7176C182.151 44.1499 182.792 42.5823 183.432 41.0197C183.5 40.8512 183.63 40.7082 183.74 40.5397C184.099 40.504 184.443 40.4733 184.745 40.4427C185.042 40.2435 185.162 39.9984 185.156 39.6972L185.172 39.7074C185.104 39.641 185.037 39.5746 184.969 39.5082V39.5184H184.318C184.115 39.1508 184.292 38.8699 184.417 38.5993C184.568 38.2827 184.688 37.9712 184.604 37.6137C184.073 37.532 183.552 37.5423 182.99 37.6342C182.719 38.2265 182.453 38.8086 182.161 39.4469C181.958 39.4572 181.75 39.4725 181.542 39.4878C181.417 39.4878 181.286 39.498 181.161 39.5031C180.958 39.6869 180.651 39.784 180.63 40.1312C180.719 40.6112 181.208 40.3865 181.463 40.555C181.672 40.8052 181.547 41.0452 181.453 41.2699C181.088 42.1686 180.724 43.0674 180.333 43.9559C179.948 44.824 179.37 45.5695 178.739 46.2793C178.515 46.5346 178.224 46.744 177.932 46.9278C177.651 47.1065 177.385 47.035 177.151 46.6623C177.671 44.6401 178.724 42.7406 179.442 40.6725C179.286 40.5908 179.161 40.4682 179.026 40.458C178.651 40.4325 178.265 40.4478 177.916 40.4478C177.494 40.8461 177.338 41.3312 177.135 41.7806C176.843 42.4393 176.625 43.1286 176.317 43.7772C175.677 45.1355 174.76 46.2589 173.385 46.9635C173.15 46.7491 173.301 46.5908 173.4 46.4427C173.932 45.6563 174.353 44.8189 174.65 43.9252C174.786 43.5167 174.89 43.098 175.01 42.6844C175.01 42.3116 175.01 41.944 175.01 41.5712C174.781 41.0759 174.562 40.5755 174.041 40.2946C173.723 40.2742 173.411 40.2589 173.093 40.2435C172.64 40.4631 172.187 40.6776 171.702 40.9125C171.228 40.9176 170.832 40.4069 170.197 40.6572C170.061 40.9278 169.879 41.2495 169.733 41.5865C169.436 42.3065 169.15 43.0265 168.874 43.7567C168.582 44.5278 168.093 45.1763 167.613 45.8299C167.415 46.0954 167.16 46.3457 166.801 46.4478C166.618 46.1312 166.681 45.8248 166.738 45.5235C166.738 45.4214 166.738 45.3193 166.738 45.212C166.462 44.1754 166.603 43.1235 166.613 42.0767C166.613 41.9031 166.697 41.7295 166.743 41.5508H166.733V40.6163C166.41 40.1823 165.962 40.0342 165.353 40.0699C164.983 40.7491 164.603 41.4537 164.212 42.1482C164.061 42.4137 163.884 42.6589 163.717 42.9142H163.728C163.399 43.5065 163.118 44.1397 162.722 44.6861C162.342 45.2172 161.811 45.6103 161.05 45.692C161.014 45.5542 161.014 45.4316 161.035 45.3091C161.035 45.2989 163.228 41.4997 160.384 40.4069C160.269 40.3559 160.154 40.3048 160.04 40.2537H159.847C158.639 40.0086 157.717 40.5908 157.081 41.2546C157.045 41.2903 157.008 41.3261 156.972 41.3618H156.967C156.967 41.3618 156.946 41.4027 156.93 41.418C156.352 42.0818 156.06 42.7661 156.06 42.7661H156.065C155.862 43.1184 155.67 43.4861 155.519 43.8793C155.086 44.9925 154.274 45.9116 153.378 46.7337C153.143 46.9482 152.862 47.1167 152.482 46.9584C152.268 46.6572 152.341 46.3303 152.471 45.9984C152.8 45.1865 153.133 44.3746 153.451 43.5576C153.748 42.8018 154.112 42.0614 154.05 41.1933C153.982 41.0708 153.909 40.9329 153.831 40.795C153.581 40.3559 153.175 40.1823 152.701 40.2589C152.268 40.3303 151.852 40.4886 151.43 40.6214C151.294 40.6623 151.169 40.744 150.971 40.8359L152.221 37.6801C152.221 37.6801 152.133 37.6801 151.773 37.624C151.633 37.5882 151.487 37.5627 151.341 37.5525V37.5423L151.273 37.5474C151.029 37.5372 150.779 37.5627 150.539 37.6035L149.492 40.0495C149.492 40.0495 149.497 40.0495 149.502 40.0495L149.492 40.0699C149.492 40.0699 149.492 40.0546 149.492 40.0495L148.133 43.2206C148.127 43.2716 148.112 43.3176 148.075 43.3533L147.554 44.5686C147.554 44.5686 147.544 44.5891 147.544 44.5942L147.179 45.4367C147.179 45.5082 147.153 45.5695 147.101 45.6206L146.216 47.6784C146.216 47.7193 146.216 47.755 146.216 47.7959C146.216 47.7959 146.2 47.8572 146.226 47.9133C146.221 47.9286 146.21 47.9491 146.21 47.9542C146.205 48.1125 148.018 48.0512 148.018 48.0512C148.018 48.0512 148.591 46.3661 149.133 44.8699C149.133 44.8699 149.133 44.8648 149.133 44.8597C149.159 44.7831 149.19 44.7014 149.216 44.6248L149.252 44.5584C149.258 44.5278 149.268 44.4972 149.273 44.4614C149.331 44.3133 149.383 44.1652 149.435 44.0223C149.44 44.012 149.45 43.9916 149.45 43.9916C149.45 43.9916 149.476 43.9252 149.508 43.8282C149.508 43.8282 149.612 43.5576 149.659 43.435L149.841 43.0469C149.841 43.0112 149.883 42.9806 149.898 42.9346C150.591 41.8418 152.003 41.9337 152.003 41.9337C152.122 42.2861 151.977 42.6282 151.831 42.9806C151.518 43.7312 151.206 44.4818 150.909 45.2427C150.711 45.7431 150.612 46.2589 150.627 46.8001C150.659 47.8418 151.445 48.4699 152.482 48.2146C153.07 48.0716 153.628 47.852 154.05 47.372C154.357 47.0248 154.727 46.7286 155.144 46.3406C155.144 46.3406 155.154 46.3763 155.17 46.4427C155.222 46.6571 155.242 46.8103 155.305 46.9431C155.404 47.1576 155.519 47.3516 155.654 47.5201C155.972 47.9797 156.461 48.4035 157.217 48.4342C158.894 48.4954 160.175 46.8154 160.175 46.8154C160.264 46.8001 160.389 46.7695 160.514 46.7644C161.92 46.744 162.905 46.0189 163.66 44.9414C163.998 44.4563 164.254 43.915 164.556 43.3993C164.629 43.2767 164.733 43.1746 164.806 43.0827C165.045 43.1491 164.999 43.2972 165.004 43.4044C165.025 44.0274 165.051 44.6503 165.045 45.2784C165.045 45.5899 165.014 45.9014 164.952 46.2078C164.879 46.5652 164.686 46.841 164.222 46.9278C163.978 46.8614 163.675 46.7797 163.405 46.7082C163.066 46.8308 162.759 46.9227 162.691 47.3159C162.868 47.8725 163.394 47.9695 163.863 48.1329C164.066 48.2044 164.285 48.2401 164.498 48.2912C164.795 48.2912 165.087 48.2912 165.384 48.2912C165.957 48.0665 166.53 47.8367 167.181 47.5814C166.957 48.6895 166.337 49.5882 166.045 50.6503C166.202 50.7423 166.348 50.8903 166.514 50.9057C166.858 50.9465 167.212 50.9159 167.52 50.9159C167.895 50.7065 167.983 50.3746 168.119 50.0529C169.051 47.7908 169.999 45.5389 170.926 43.2767C171.202 42.5976 171.723 42.1533 172.338 41.8112C172.499 41.7193 172.749 41.7754 172.958 41.7652C173.317 42.4852 173.083 43.1184 172.853 43.7261C172.39 44.9567 171.937 46.2027 170.733 46.9891C170.499 46.9482 170.285 46.9125 170.015 46.8665C169.89 46.9942 169.749 47.1423 169.587 47.3108C169.905 47.8112 170.348 48.0206 170.869 48.1074C172.343 48.3627 173.65 47.9848 174.807 47.0759C174.979 46.938 175.145 46.795 175.348 46.6265C175.479 46.9125 175.63 47.1525 175.708 47.4129C175.848 47.8776 176.182 48.1278 176.619 48.281C176.708 48.281 176.791 48.2861 176.88 48.2912C177.675 48.1142 178.547 47.6682 179.495 46.9533C179.562 47.1576 179.604 47.3516 179.692 47.5252C179.776 47.6886 179.89 47.852 180.036 47.9644C180.203 48.0972 180.411 48.1686 180.604 48.2708C180.901 48.2759 181.203 48.2861 181.5 48.2912C182.49 47.9848 183.271 47.3516 184.037 46.6163C184.208 47.0299 184.271 47.418 184.495 47.6733C184.729 47.944 185.115 48.0869 185.433 48.2861C185.599 48.2759 185.766 48.2606 185.933 48.2503C186.584 48.0869 187.125 47.7397 187.657 47.2648C187.948 47.5457 188.214 47.7959 188.501 48.0716C189.876 48.6027 190.818 47.7857 191.756 46.9942C191.829 47.035 191.907 47.0554 191.917 47.0912C192.115 47.8623 192.642 48.2095 193.428 48.235C193.454 48.235 193.48 48.2708 193.501 48.2912C193.589 48.2912 193.683 48.2912 193.772 48.2912C195.147 47.8469 196.074 46.8972 196.809 45.7227C197.012 45.401 197.251 45.1048 197.423 44.7729C197.616 44.4001 197.439 44.155 196.913 44.0223V44.0274ZM159.639 43.9865C159.566 44.1397 159.399 44.298 159.238 44.3542C158.576 44.5942 158.383 45.0486 158.508 45.692C158.545 45.8708 158.514 46.0648 158.514 46.2486C158.352 46.5142 158.139 46.7082 157.862 46.8461C157.862 46.8461 157.31 47.1474 157.107 47.1474C156.904 47.1474 156.789 46.4784 156.81 46.121C156.81 46.121 156.81 46.121 156.81 46.1159C156.81 45.5593 156.972 45.0537 157.154 44.5584C157.513 43.5831 157.946 42.6435 158.685 41.8776C158.967 41.5865 159.279 41.4027 159.779 41.6325C159.837 41.7703 159.977 41.9593 159.998 42.1584C160.066 42.7967 159.899 43.4044 159.628 43.9763L159.639 43.9865ZM189.032 42.9193C188.933 43.3125 188.771 43.6852 188.615 44.0631C188.428 44.5278 188.261 45.0078 188.011 45.4367C187.646 46.0648 187.214 46.6469 186.37 46.7491C186.24 46.6674 186.11 46.5857 186.006 46.5193C185.729 45.6206 186.136 44.8699 186.417 44.1244C186.631 43.5474 187.006 43.0163 187.349 42.5006C187.594 42.1329 187.933 41.8367 188.584 41.7703C188.714 41.8929 188.938 42.0103 189.006 42.1891C189.089 42.4086 189.089 42.6895 189.032 42.9193Z" fill="#2F3293"></path><path d="M119.291 39.6051C119.93 39.6051 120.447 39.0976 120.447 38.4715C120.447 37.8454 119.93 37.3379 119.291 37.3379C118.652 37.3379 118.135 37.8454 118.135 38.4715C118.135 39.0976 118.652 39.6051 119.291 39.6051Z" fill="#2F3293"></path><path d="M179.333 39.6051C179.972 39.6051 180.489 39.0976 180.489 38.4715C180.489 37.8454 179.972 37.3379 179.333 37.3379C178.694 37.3379 178.177 37.8454 178.177 38.4715C178.177 39.0976 178.694 39.6051 179.333 39.6051Z" fill="#2F3293"></path><path d="M81.4287 10.5444V29.5146H77.5586V23.8261H68.5317V29.5146H64.6616V10.5444H68.5317V20.027H77.5586V10.5444H81.4287Z" fill="#87CDAC"></path><path d="M91.3618 10.5444H105.551V14.3385H95.2319V20.027H102.972V23.821H95.2319V25.7155H105.551V29.5095H91.3618V10.5444Z" fill="#87CDAC"></path><path d="M129.912 29.5095H125.292L121.911 24.4491H118.869V29.5095H114.999V10.5444H122.093C126.016 10.5444 129.188 13.6542 129.188 17.4993C129.188 20.0015 127.844 22.1768 125.833 23.4176L129.907 29.5146L129.912 29.5095ZM122.093 20.6602C123.875 20.6602 125.318 19.2457 125.318 17.4993C125.318 15.7529 123.875 14.3385 122.093 14.3385H118.869V20.6602H122.093Z" fill="#87CDAC"></path><path d="M142.179 29.5095H138.309V10.5444H142.179V29.5146V29.5095Z" fill="#87CDAC"></path><path d="M150.06 10.5444H166.827V14.3385H160.378V29.5146H156.508V14.3385H150.06V10.5444Z" fill="#87CDAC"></path><path d="M186.115 26.3489H176.155L174.4 29.5097H169.988L181.135 9.50293L192.308 29.5097H187.896L186.115 26.3489ZM184 22.5548L181.135 17.3974L178.27 22.5548H183.995H184Z" fill="#87CDAC"></path><path d="M214.263 25.7155C212.508 28.0185 209.695 29.5095 206.523 29.5095C201.184 29.5095 196.85 25.261 196.85 20.027C196.85 14.7929 201.184 10.5444 206.523 10.5444C209.903 10.5444 212.867 12.2398 214.596 14.8185L211.528 17.147C210.523 15.4772 208.664 14.3385 206.523 14.3385C203.325 14.3385 200.72 16.8917 200.72 20.027C200.72 23.1623 203.325 25.7155 206.523 25.7155C208.018 25.7155 209.362 25.1589 210.393 24.2755V23.1878H205.877V19.3938H214.263V25.7155Z" fill="#87CDAC"></path><path d="M223.373 10.5444H237.562V14.3385H227.243V20.027H234.983V23.821H227.243V25.7155H237.562V29.5095H223.373V10.5444Z" fill="#87CDAC"></path><mask id="mask0_3137_4030" style="mask-type:luminance" maskUnits="userSpaceOnUse" x="6" y="3" width="48" height="48"><path d="M53.0463 3.95752H6.03711V50.0426H53.0463V3.95752Z" fill="white"></path></mask><g mask="url(#mask0_3137_4030)"><path d="M30.1226 50.0424C29.7163 50.0424 29.31 50.0424 28.8985 50.0424C28.5808 50.0219 28.263 50.0066 27.9453 49.9862C26.9348 49.9555 25.9451 49.8024 24.9555 49.6134C22.9084 49.2304 20.9603 48.5615 19.0904 47.6577C17.6423 46.9581 16.2881 46.1104 15.0223 45.1351C14.0118 44.3589 13.0847 43.496 12.2096 42.5768C10.9907 41.2849 9.94376 39.8653 9.05827 38.3334C8.21445 36.8679 7.54252 35.3309 7.04248 33.7224C6.67786 32.5428 6.42263 31.3428 6.24553 30.1172C6.02155 28.6058 5.99551 27.0841 6.07364 25.5675C6.15698 24.0151 6.42263 22.4883 6.83933 20.9819C7.2925 19.3377 7.92797 17.7598 8.74054 16.2534C9.55311 14.747 10.5271 13.3479 11.6575 12.0458C13.1888 10.2789 14.9494 8.78278 16.9444 7.54193C19.4394 5.98958 22.1323 4.94278 25.0284 4.37597C27.0181 3.98788 29.0287 3.89597 31.0445 3.9981C32.8468 4.09512 34.6125 4.41682 36.3366 4.93256C38.6389 5.61682 40.7849 6.62278 42.7747 7.95554C43.7748 8.62448 44.7124 9.37512 45.6031 10.187C46.9521 11.4177 48.1293 12.7913 49.1502 14.2977C50.692 16.5751 51.7807 19.0517 52.4161 21.7172C52.6401 22.6568 52.7912 23.6066 52.9058 24.5666C53.0464 25.7819 53.0724 27.0024 53.0099 28.2228C52.9318 29.8415 52.6662 31.4398 52.2338 33.0075C51.8275 34.4934 51.2754 35.9232 50.5722 37.2968C49.8534 38.7113 48.994 40.0441 47.9887 41.2798C46.0823 43.6236 43.8164 45.5538 41.1548 47.0398C38.8212 48.347 36.3314 49.2304 33.6958 49.6951C32.8311 49.8483 31.9561 49.9811 31.0706 49.9862C30.7528 50.0066 30.4351 50.0219 30.1122 50.0424H30.1226ZM30.6643 4.92235C29.1016 4.87639 27.5442 4.92746 25.9972 5.17767C24.7211 5.38193 23.471 5.6781 22.2521 6.08661C20.877 6.54618 19.5592 7.13341 18.3039 7.84831C16.9287 8.62448 15.637 9.52831 14.465 10.5853C13.2513 11.673 12.1419 12.8577 11.1887 14.1802C10.1 15.6917 9.19891 17.3053 8.51656 19.0313C8.01652 20.3079 7.63628 21.6151 7.38105 22.9581C7.19353 23.9641 7.06852 24.9751 7.02164 25.9913C6.96955 27.0892 7.00601 28.187 7.12582 29.2798C7.2352 30.3164 7.41751 31.3428 7.66753 32.3538C8.14153 34.2279 8.85513 36.01 9.80834 37.6951C10.699 39.273 11.7616 40.7385 13.0326 42.0458C13.6889 42.7198 14.3921 43.353 15.1057 43.9658C16.1995 44.9053 17.4027 45.6917 18.6789 46.376C20.5332 47.3717 22.4917 48.1172 24.5596 48.5666C25.742 48.8219 26.9348 49.0058 28.1432 49.0619C28.2162 49.0824 28.2891 49.1181 28.362 49.1181C29.1433 49.1181 29.9298 49.1181 30.7112 49.1181C30.7841 49.1181 30.857 49.0824 30.9299 49.0619C31.18 49.0415 31.4248 49.0211 31.6748 49.0058C32.9509 48.9036 34.201 48.6687 35.4407 48.3419C37.6545 47.7598 39.7223 46.8509 41.6548 45.6458C43.6081 44.4253 45.327 42.9445 46.8115 41.1981C47.7387 40.1104 48.5564 38.9564 49.2492 37.7206C50.3274 35.8058 51.1139 33.7785 51.5723 31.6338C51.8796 30.1989 52.0619 28.7487 52.0672 27.2781C52.0672 26.7572 52.0307 26.2364 52.0151 25.7155C51.9838 24.7606 51.8484 23.816 51.6713 22.8815C51.1244 20.0424 50.0461 17.4126 48.4471 14.9921C47.2959 13.2509 45.9104 11.6985 44.3165 10.3351C42.9883 9.19639 41.5454 8.23129 39.9828 7.42448C38.5452 6.67895 37.0398 6.10703 35.4772 5.6832C34.1229 5.32065 32.7426 5.07554 31.3414 4.97852C31.1122 4.9581 30.8831 4.94278 30.6591 4.92235H30.6643Z" fill="#89CEAE"></path><path d="M31.3464 4.97365C31.1172 4.95322 30.888 4.93791 30.6641 4.91748C30.8932 4.93791 31.1224 4.95322 31.3464 4.97365Z" fill="#C4E6D5"></path><path d="M39.6441 27.9726C39.2326 27.9522 38.8263 27.9318 38.4148 27.9114C38.0971 27.8195 37.7741 27.8041 37.4564 27.9063C37.0189 27.9216 36.6178 28.0544 36.2323 28.2535C35.9979 28.3812 35.8261 28.5548 35.7115 28.7999C35.3364 29.6067 34.6801 30.0561 33.7894 30.1837C33.4717 30.1633 33.154 30.1429 32.8362 30.1224C32.581 30.148 32.3206 30.1582 32.0653 30.1939C31.7997 30.2348 31.5757 30.4952 31.5549 30.7863C31.5444 30.9497 31.5549 31.1233 31.5965 31.2765C31.7007 31.6595 31.8257 32.0424 31.9611 32.4203C32.1018 32.8135 32.3206 33.1709 32.6539 33.4314C32.8414 33.5795 33.0602 33.7275 33.2894 33.7939C34.1436 34.039 35.0135 34.2586 35.8781 34.4731C36.0865 34.5241 36.3001 34.565 36.5136 34.5599C36.7741 34.5599 36.9251 34.6824 37.0032 34.8918C37.0814 35.1012 37.123 35.3156 37.1751 35.5301C37.3627 36.3318 37.5293 37.1335 37.7377 37.925C37.8471 38.3437 37.8158 38.7216 37.5762 39.0739C37.3001 39.4824 37.2741 39.9267 37.347 40.3863C37.4199 40.8407 37.446 41.2748 37.2741 41.7292C37.1855 41.9692 37.1855 42.2552 37.2168 42.5156C37.321 43.3735 37.7481 44.0833 38.3211 44.7216C38.5867 45.0229 38.8263 45.3446 39.1024 45.6867C36.6074 46.9275 34.003 47.6169 31.258 47.8467C26.7367 48.2297 22.6114 46.9633 21.0071 46.1258C20.9602 45.3548 21.0435 44.6195 21.6217 44.022C21.8665 43.7718 22.1061 43.5216 22.3718 43.2969C22.6791 43.0365 23.0177 42.8118 23.3354 42.5616C23.4396 42.4799 23.5386 42.3829 23.6115 42.2756C24.4553 40.9582 24.4918 39.5846 23.8927 38.1701C23.8511 38.068 23.7886 37.9709 23.7365 37.8739C23.549 37.5012 23.5281 37.2407 23.9084 36.8475C24.174 36.5667 24.5126 36.3624 24.9085 36.3216C25.3772 36.2705 25.6377 36.0356 25.7679 35.6067C25.8825 35.2237 26.0127 34.8458 25.9815 34.4373C25.9606 34.1054 25.8565 33.9829 25.5231 33.9216C25.1897 33.8603 24.9553 33.6918 24.7782 33.4007C24.6272 33.1454 24.4449 32.8952 24.2469 32.6705C23.7573 32.1292 23.1583 31.7718 22.4603 31.7003C22.3926 31.3531 22.351 31.0263 22.2624 30.7097C22.1634 30.3675 22.0176 30.0407 21.8978 29.7088C21.8301 29.525 21.6999 29.479 21.5228 29.525C21.3873 29.3922 21.2623 29.2441 21.1061 29.1369C20.4966 28.7284 20.1633 27.9216 20.6164 27.0331C20.7987 26.6756 20.8717 26.3029 20.8821 25.9097C20.9029 25.1692 20.7883 24.4492 20.6425 23.7292C20.6268 23.6629 20.6321 23.5965 20.6164 23.4433C20.7935 23.622 20.9185 23.7292 21.0227 23.8569C21.528 24.5003 22.0228 25.1437 22.5176 25.7922C22.8093 26.1752 23.0385 26.5888 23.2104 27.0433C23.3198 27.3395 23.4969 27.6254 23.7 27.8705C24.1219 28.3863 24.6793 28.5956 25.3616 28.4526C25.7887 28.3607 26.169 28.1718 26.5284 27.9318C26.9295 27.6612 27.1795 27.2526 27.5024 26.9207C27.8045 26.6041 27.8827 26.2365 27.7785 25.8433C27.6795 25.4858 27.5128 25.1386 27.3722 24.7914C27.2524 24.4952 27.0961 24.2092 27.0024 23.9029C26.8045 23.2748 26.7576 22.6161 26.742 21.9624C26.7263 21.4109 26.7732 20.8543 26.8045 20.2978C26.8097 20.1854 26.867 20.0629 26.9295 19.9658C27.3878 19.2714 27.3618 18.5922 26.893 17.9131C26.6638 17.5812 26.4398 17.2492 26.2107 16.9173C26.1377 16.8152 26.0388 16.6978 26.1534 16.5956C26.2315 16.5241 26.3825 16.468 26.4815 16.4884C26.7107 16.5292 26.9399 16.6007 27.1587 16.6875C27.393 16.7846 27.617 16.9173 27.8566 17.0399C27.9296 16.708 27.8254 16.422 27.7212 16.1463C27.5128 15.5897 27.0961 15.2067 26.5753 14.9207C26.867 13.9914 26.8253 13.0773 26.6378 12.1531C26.5805 12.2654 26.5388 12.3778 26.5284 12.4952C26.5023 12.7199 26.3982 12.8935 26.2263 13.0365C25.7523 13.4246 25.221 13.7156 24.6116 13.8535C24.5803 13.8586 24.5438 13.8739 24.5126 13.879C24.2678 13.9046 24.1584 13.7922 24.2261 13.5675C24.2782 13.399 24.3615 13.2356 24.4449 13.0824C24.5334 12.919 24.6324 12.7658 24.7314 12.6075C24.7209 12.5871 24.7053 12.5667 24.6949 12.5514C24.4449 12.6382 24.1792 12.6995 23.9396 12.8067C23.4813 13.0109 23.0958 13.3173 22.7364 13.6646C22.5801 13.8126 22.4447 13.9148 22.2051 13.8586C22.0228 13.8126 21.8249 13.8331 21.6321 13.8229C21.4238 13.7463 21.2154 13.7207 21.0071 13.8229C20.481 13.8995 19.9497 13.9403 19.434 14.0629C15.6577 14.9616 12.7876 17.0858 10.7406 20.308C10.4072 20.8339 10.0687 21.365 9.69883 21.8654C9.34984 22.3403 8.94876 22.7795 8.57373 23.239C8.71437 22.6007 8.82896 21.9573 9.00606 21.3292C9.64674 19.062 10.6625 16.9633 12.0376 15.0382C13.8711 12.4697 16.1681 10.3965 18.9444 8.83903C20.6841 7.86371 22.5228 7.1335 24.4709 6.67392C25.5491 6.41861 26.6378 6.22456 27.7472 6.16329C28.0858 6.14286 28.4244 6.11733 28.763 6.0918H30.3256C32.4768 6.1735 34.5707 6.55137 36.6022 7.25095C38.8628 8.03222 40.9359 9.15563 42.811 10.6212C44.5976 12.0203 46.1186 13.6492 47.3739 15.5182C48.1865 16.7284 48.8636 18.005 49.3949 19.3582C49.4106 19.399 49.421 19.445 49.4314 19.4858C48.5199 19.4654 47.6239 19.5829 46.7801 19.925C46.2176 20.1497 45.6446 20.2058 45.056 20.165C44.6081 20.1344 44.1705 20.0373 43.733 19.7973C44.2226 19.7105 44.6393 19.5624 45.0196 19.3071C45.655 18.8782 46.0821 18.2909 46.3999 17.6169C46.478 17.4535 46.5041 17.2544 46.5145 17.0705C46.5353 16.6875 46.3582 16.4475 45.9884 16.3097C45.8738 16.2688 45.7488 16.2535 45.629 16.228C45.3321 16.1361 45.0352 16.1309 44.7383 16.228C44.0455 16.4526 43.3996 16.759 42.8735 17.2799C42.7642 17.3922 42.5871 17.4688 42.4308 17.5046C41.9412 17.6118 41.5036 17.4484 41.1494 17.1318C40.8473 16.8663 40.6077 16.5395 40.3264 16.2535C40.1077 16.0288 39.8993 15.7888 39.6389 15.6203C38.9722 15.1863 38.0606 15.5131 37.7533 15.9726C37.6335 16.1514 37.4616 16.1769 37.2793 16.1514C37.0814 16.1207 36.8834 16.0595 36.6855 16.0186C36.4667 15.9778 36.2428 15.9165 36.0188 15.9165C35.6698 15.9165 35.3104 16.1105 35.3521 16.6212C35.3677 16.8305 35.3781 17.0399 35.3729 17.2544C35.3729 17.5454 35.2479 17.7497 34.9562 17.8773C33.9978 18.2807 33.7009 19.2458 33.8311 20.0169C33.9196 20.5224 33.753 20.9309 33.3779 21.2731C33.2946 21.3497 33.2113 21.4263 33.1383 21.5029C32.7477 21.9216 32.3726 22.3505 31.9611 22.7488C31.7215 22.9786 31.4507 23.1931 31.1642 23.3616C30.7006 23.6322 30.56 23.8569 30.6069 24.388C30.6329 24.7097 30.6642 25.0263 30.685 25.348C30.7162 25.8484 30.9767 26.1241 31.4871 26.1599C31.857 26.1905 32.1903 26.2978 32.5185 26.4663C32.6487 26.5326 32.7841 26.5837 32.9196 26.6399C33.0081 26.6552 33.1019 26.6705 33.1904 26.6858H33.3258C33.4144 26.6705 33.5029 26.6501 33.5915 26.6348C33.7269 26.5837 33.878 26.5531 33.9978 26.4816C34.253 26.3284 34.4874 26.3744 34.7322 26.502C34.9406 26.6092 35.1593 26.7012 35.3833 26.7726C36.0292 26.9769 36.6959 27.0995 37.3731 27.1454C37.7533 27.1709 38.1388 27.1352 38.519 27.0944C38.868 27.0586 39.1388 27.1505 39.3316 27.4518C39.4357 27.6203 39.5503 27.7888 39.6597 27.9573V27.9471L39.6441 27.9726Z" fill="#87CDAC"></path><path d="M8.5788 23.249C8.95384 22.7946 9.35491 22.3503 9.7039 21.8754C10.0737 21.3699 10.4123 20.8439 10.7457 20.318C12.7927 17.0959 15.6627 14.9716 19.4391 14.0729C19.9496 13.9503 20.4861 13.9095 21.0122 13.8329C21.2205 13.8329 21.4289 13.8329 21.6372 13.8329C21.8299 13.8431 22.0279 13.8227 22.2102 13.8686C22.4498 13.9248 22.5852 13.8278 22.7415 13.6746C23.0957 13.3324 23.4863 13.021 23.9447 12.8167C24.1895 12.7095 24.45 12.6431 24.7 12.5614C24.7104 12.5818 24.726 12.6022 24.7364 12.6176C24.6375 12.7759 24.5385 12.929 24.45 13.0924C24.3666 13.2507 24.2833 13.409 24.2312 13.5776C24.1635 13.8022 24.2729 13.9146 24.5177 13.889C24.5541 13.889 24.5854 13.8737 24.6166 13.8635C25.2261 13.7256 25.7521 13.4346 26.2314 13.0465C26.4032 12.9086 26.5074 12.7299 26.5335 12.5052C26.5439 12.3878 26.5908 12.2754 26.6428 12.1631C26.8304 13.0822 26.872 14.0014 26.5803 14.9307C27.1012 15.2167 27.5179 15.5997 27.7263 16.1563C27.8304 16.432 27.9346 16.7129 27.8617 17.0499C27.6169 16.9222 27.3981 16.7946 27.1637 16.6976C26.945 16.6107 26.7158 16.5393 26.4866 16.4984C26.3824 16.4831 26.2366 16.5342 26.1584 16.6056C26.0438 16.7078 26.1428 16.8252 26.2157 16.9273C26.4449 17.2593 26.6689 17.5912 26.8981 17.9231C27.3669 18.6022 27.3877 19.2814 26.9345 19.9759C26.8668 20.0729 26.8147 20.1954 26.8095 20.3078C26.7731 20.8593 26.7314 21.4159 26.747 21.9724C26.7626 22.6261 26.8095 23.2848 27.0075 23.9129C27.1064 24.2193 27.2575 24.5052 27.3773 24.8014C27.5179 25.1486 27.6846 25.4959 27.7836 25.8533C27.893 26.2465 27.8148 26.6193 27.5075 26.9307C27.1794 27.2678 26.9345 27.6763 26.5335 27.9418C26.1741 28.1818 25.799 28.3707 25.3667 28.4627C24.6843 28.6056 24.1322 28.3963 23.7051 27.8805C23.502 27.6354 23.3249 27.3444 23.2155 27.0533C23.0436 26.5988 22.8144 26.1852 22.5227 25.8022C22.0279 25.1537 21.533 24.5103 21.0278 23.8669C20.9288 23.7393 20.7986 23.632 20.6215 23.4533C20.6319 23.6065 20.6319 23.6729 20.6475 23.7393C20.7986 24.4593 20.9132 25.1793 20.8871 25.9197C20.8767 26.3129 20.8038 26.6856 20.6215 27.0431C20.1683 27.9265 20.5017 28.7384 21.1111 29.1469C21.2674 29.249 21.3872 29.4022 21.5278 29.535C21.3768 30.158 21.2257 30.7861 21.0747 31.409C21.0747 31.4193 21.0695 31.4295 21.0642 31.4397C20.9288 31.8686 20.7569 31.9044 20.4288 31.5929C20.2986 31.4703 20.1631 31.3478 20.0069 31.261C19.7048 31.0822 19.4756 31.1793 19.3922 31.5112C19.2881 31.9401 19.2047 32.3793 19.1162 32.8133C19.0432 33.1605 18.9547 33.4873 18.7568 33.8039C18.4338 34.3095 18.4911 34.861 18.689 35.4073C18.7984 35.7188 18.9026 36.0405 18.9443 36.3673C19.0276 36.9852 18.6526 37.409 18.0275 37.4397C16.0169 37.5418 14.2824 38.2618 12.8083 39.5997C12.7615 39.6405 12.7042 39.6814 12.6417 39.7376C12.5531 39.6303 12.475 39.5384 12.4073 39.4414C10.3654 36.7197 9.0476 33.6967 8.50588 30.3571C8.44859 29.9946 8.40692 29.632 8.36004 29.2695C8.35483 29.2388 8.34962 29.2082 8.3392 29.1776C8.32358 28.9835 8.31316 28.7895 8.29753 28.6005C8.28711 28.529 8.2767 28.4524 8.27149 28.381C8.26107 27.6048 8.25065 26.8235 8.24023 26.0473C8.24023 26.0065 8.24023 25.9605 8.24023 25.9146C8.29753 25.118 8.36525 24.3214 8.51109 23.535C8.53193 23.438 8.56318 23.3461 8.58401 23.249V23.2593L8.5788 23.249Z" fill="#2E3192"></path><path d="M32.9145 26.6603C32.7791 26.6041 32.6436 26.5531 32.5134 26.4867C32.1905 26.3182 31.8519 26.2058 31.4821 26.1803C30.9716 26.1394 30.706 25.8637 30.6799 25.3684C30.6591 25.0467 30.6331 24.7301 30.6018 24.4084C30.5549 23.8773 30.6956 23.6526 31.1591 23.382C31.4456 23.2135 31.7165 22.999 31.9561 22.7692C32.3624 22.3709 32.7426 21.9369 33.1333 21.5233C33.2114 21.4416 33.2895 21.365 33.3729 21.2935C33.7479 20.9514 33.9146 20.5428 33.826 20.0373C33.6958 19.2662 33.9875 18.3011 34.9511 17.8977C35.2428 17.7752 35.3626 17.5658 35.3678 17.2748C35.3678 17.0654 35.3626 16.8509 35.347 16.6416C35.3105 16.1309 35.6647 15.942 36.0137 15.9369C36.2377 15.9369 36.4565 15.9982 36.6804 16.039C36.8784 16.0799 37.0763 16.1411 37.2742 16.1718C37.4566 16.1973 37.6232 16.1718 37.7482 15.9931C38.0608 15.5335 38.9723 15.2067 39.6338 15.6407C39.8943 15.8092 40.1026 16.0492 40.3214 16.2739C40.6027 16.5599 40.8475 16.8867 41.1444 17.1522C41.4986 17.4688 41.9361 17.6271 42.4257 17.525C42.582 17.4892 42.7591 17.4126 42.8685 17.3003C43.3946 16.7794 44.0404 16.4731 44.7332 16.2484C45.0301 16.2484 45.327 16.2484 45.6239 16.2484C45.7437 16.2739 45.8687 16.2892 45.9833 16.3301C46.3531 16.4679 46.5302 16.708 46.5094 17.0909C46.499 17.2748 46.4729 17.4739 46.3948 17.6373C46.0771 18.3114 45.6448 18.8986 45.0145 19.3275C44.6343 19.5828 44.2175 19.7309 43.7279 19.8177C44.1655 20.0577 44.603 20.1548 45.051 20.1854C45.6395 20.2262 46.2125 20.1752 46.7751 19.9454C47.6189 19.6084 48.5148 19.4909 49.4263 19.5062C49.6347 20.1037 49.8639 20.6909 50.0514 21.2986C50.3691 22.3199 50.5775 23.3667 50.7025 24.4237C50.8692 25.8433 50.9212 27.2731 50.7962 28.7028C50.5098 32.0169 49.4992 35.1011 47.7283 37.9403C47.671 38.0322 47.6085 38.119 47.5251 38.2416C47.0407 37.8688 46.6553 37.4501 46.4365 36.8986C46.3375 36.6535 46.2281 36.4084 46.0927 36.1786C46.0042 36.0305 45.8844 35.8824 45.7437 35.7803C45.327 35.479 45.0145 35.0909 44.6968 34.6926C44.5405 34.4986 44.4519 34.2739 44.3946 34.0288C44.2176 33.3037 43.9571 32.6041 43.5821 31.9556C43.3998 31.6441 43.2018 31.3531 42.8737 31.1641C42.7956 31.1182 42.7539 30.9905 42.7174 30.8935C42.5664 30.4645 42.4518 30.0203 42.2799 29.6016C42.0976 29.1573 41.8215 28.759 41.4413 28.4475C41.2121 28.2637 40.9725 28.1003 40.6704 28.0543C40.3526 28.0339 40.0297 28.0135 39.712 27.9931C39.6911 27.9931 39.6703 27.9931 39.6495 27.9828C39.5401 27.8143 39.4307 27.6509 39.3213 27.4773C39.1338 27.176 38.8629 27.0892 38.5087 27.1199C38.1285 27.1556 37.743 27.1965 37.3628 27.1709C36.6857 27.125 36.0189 27.0024 35.373 26.7982C35.1491 26.7267 34.9303 26.6348 34.7219 26.5275C34.4719 26.405 34.2427 26.359 33.9875 26.5071C33.8625 26.5786 33.7167 26.6092 33.5812 26.6603C33.4927 26.6756 33.4041 26.696 33.3156 26.7114H33.1801C33.0916 26.696 32.9978 26.6807 32.9093 26.6654L32.9145 26.6603Z" fill="#2E3292"></path><path d="M30.3258 6.10177H28.7632C28.8361 6.08134 28.909 6.0507 28.9872 6.0507C29.3622 6.0456 29.732 6.0456 30.1018 6.0507C30.1748 6.0507 30.2477 6.08645 30.3258 6.10177Z" fill="#E1F3EA"></path><path d="M37.4614 27.9064C37.7792 27.8042 38.1021 27.8195 38.4198 27.9115C38.1021 27.9115 37.7792 27.9115 37.4614 27.9064Z" fill="#C4E6D5"></path><path d="M8.3291 29.1777C8.33427 29.2084 8.33943 29.239 8.34977 29.2696C8.3446 29.239 8.33943 29.2084 8.3291 29.1777Z" fill="#6872B1"></path><path d="M45.629 16.2383C45.3321 16.2383 45.0352 16.2383 44.7383 16.2383C45.0352 16.1361 45.3321 16.1412 45.629 16.2383Z" fill="#6872B1"></path><path d="M21.6324 13.833C21.424 13.833 21.2157 13.833 21.0073 13.833C21.2157 13.7309 21.424 13.7564 21.6324 13.833Z" fill="#6872B1"></path></g></svg> 